<svg width="543" height="593" viewBox="0 0 543 593" fill="none" xmlns="http://www.w3.org/2000/svg">
<path d="M10.3933 437.004C-7.98852 500.312 187.146 520.072 224.889 524.541C262.633 529.009 364.739 533.832 413.544 529.01C476.024 522.836 525.674 468.95 533.846 405.093C540.384 354.008 426.273 348.177 368.4 351.648C303.802 353.3 175.891 354.454 173.689 354.276C170.817 354.045 33.3706 357.87 10.3933 437.004Z" fill="#002D6C" fill-opacity="0.9"/>
<g clip-path="url(#clip0_7514_2443)">
<path d="M478.808 8.5918H283.733V238.027H478.808V8.5918Z" fill="#1B82FB" stroke="#1B82FB" stroke-width="1.5" stroke-linecap="round" stroke-linejoin="round"/>
<path d="M478.808 0.505371H283.733V229.941H478.808V0.505371Z" fill="white" stroke="#1B82FB" stroke-width="1.5" stroke-linecap="round" stroke-linejoin="round"/>
<path d="M338.61 28.0703H308.706V57.9743H338.61V28.0703Z" fill="#FCFCFC" stroke="black" stroke-width="1.5" stroke-linecap="round" stroke-linejoin="round"/>
<path d="M315.677 43.3684L320.768 48.4594L331.641 37.5859" stroke="black" stroke-width="1.5" stroke-linecap="round" stroke-linejoin="round"/>
<path d="M353.924 33.6079H452.015" stroke="black" stroke-width="1.5" stroke-linecap="round" stroke-linejoin="round"/>
<path d="M353.924 51.0112H400.948" stroke="black" stroke-width="1.5" stroke-linecap="round" stroke-linejoin="round"/>
<path d="M338.61 76.5884H308.706V106.492H338.61V76.5884Z" fill="#FCFCFC" stroke="black" stroke-width="1.5" stroke-linecap="round" stroke-linejoin="round"/>
<path d="M353.924 82.1265H452.015" stroke="black" stroke-width="1.5" stroke-linecap="round" stroke-linejoin="round"/>
<path d="M353.924 99.5298H400.948" stroke="black" stroke-width="1.5" stroke-linecap="round" stroke-linejoin="round"/>
<path d="M338.61 124.264H308.706V154.168H338.61V124.264Z" fill="#FCFCFC" stroke="black" stroke-width="1.5" stroke-linecap="round" stroke-linejoin="round"/>
<path d="M353.924 129.801H452.015" stroke="black" stroke-width="1.5" stroke-linecap="round" stroke-linejoin="round"/>
<path d="M353.924 147.204H400.948" stroke="black" stroke-width="1.5" stroke-linecap="round" stroke-linejoin="round"/>
<path d="M338.61 172.782H308.706V202.686H338.61V172.782Z" fill="#FCFCFC" stroke="black" stroke-width="1.5" stroke-linecap="round" stroke-linejoin="round"/>
<path d="M353.924 178.319H452.015" stroke="black" stroke-width="1.5" stroke-linecap="round" stroke-linejoin="round"/>
<path d="M353.924 195.722H400.948" stroke="black" stroke-width="1.5" stroke-linecap="round" stroke-linejoin="round"/>
<path d="M315.677 91.8864L320.768 96.9775L331.641 86.104" stroke="black" stroke-width="1.5" stroke-linecap="round" stroke-linejoin="round"/>
<path d="M315.677 139.835L320.768 144.926L331.641 134.054" stroke="black" stroke-width="1.5" stroke-linecap="round" stroke-linejoin="round"/>
<path d="M315.677 188.354L320.768 193.445L331.641 182.572" stroke="black" stroke-width="1.5" stroke-linecap="round" stroke-linejoin="round"/>
<path d="M329.84 463.084L278.685 463.347L276.8 432.83L305.424 432.15C305.424 432.15 307.294 449.947 317.562 450.746C333.767 452.012 329.84 463.084 329.84 463.084Z" fill="white" stroke="black" stroke-width="1.5" stroke-linecap="round" stroke-linejoin="round"/>
<path d="M128.432 135.793C135.894 135.793 141.943 129.744 141.943 122.282C141.943 114.821 135.894 108.771 128.432 108.771C120.97 108.771 114.921 114.821 114.921 122.282C114.921 129.744 120.97 135.793 128.432 135.793Z" fill="black"/>
<path d="M111.679 133.194C118.123 133.194 123.347 127.97 123.347 121.526C123.347 115.082 118.123 109.858 111.679 109.858C105.235 109.858 100.011 115.082 100.011 121.526C100.011 127.97 105.235 133.194 111.679 133.194Z" fill="black"/>
<path d="M106.68 162.648C118.554 162.648 128.18 153.022 128.18 141.149C128.18 129.275 118.554 119.649 106.68 119.649C94.8061 119.649 85.1804 129.275 85.1804 141.149C85.1804 153.022 94.8061 162.648 106.68 162.648Z" fill="black"/>
<path d="M100.803 164.099C98.8524 160.023 97.4919 157.303 96.1536 153.243C94.4123 142.615 103.474 128.619 114.533 128.328C126.063 128.026 127.298 130.968 128.876 132.747C131.622 135.845 139.52 154.921 138.621 160.142C138.02 163.633 135.672 166.765 130.992 169.618L135.073 180.284C135.073 180.284 140.04 190.543 128.015 195.206C113.701 200.756 110.815 189.031 110.815 189.031C110.815 189.031 101.825 165.221 100.906 164.053C100.871 164.067 100.819 164.133 100.803 164.099Z" fill="white" stroke="black" stroke-width="1.5" stroke-linecap="round" stroke-linejoin="round"/>
<path d="M123.039 155.139C123.039 155.139 124.863 162.847 121.133 166.561C117.403 170.274 110.21 174.496 104.203 172.809C96.5229 170.651 87.3004 150.186 87.3004 150.186L105.338 140.831L119.138 145.026L123.04 155.139L123.039 155.139Z" fill="black"/>
<path d="M133.638 131.846L124.43 135.786C124.43 135.786 127.038 141.693 122.95 143.886L125.13 149.331L121.403 150.799L96.0201 152.614L90.4109 133.053L104.795 120.889L124.193 119.954L133.638 131.847V131.846Z" fill="black"/>
<path d="M134.34 145.213L138.087 147.422C138.577 147.646 138.682 148.297 138.287 148.664L136.049 150.166" fill="white"/>
<path d="M134.34 145.213L138.087 147.422C138.577 147.646 138.682 148.297 138.287 148.664L136.049 150.166" stroke="black" stroke-width="1.5" stroke-linecap="round" stroke-linejoin="round"/>
<path d="M133.24 142.125L133.212 142.028C133.165 141.831 133.075 141.659 132.941 141.513C132.833 141.348 132.692 141.217 132.515 141.122C132.341 141.011 132.153 140.951 131.951 140.942C131.75 140.897 131.548 140.905 131.347 140.969L130.985 141.122C130.757 141.257 130.576 141.438 130.441 141.666L130.288 142.027C130.216 142.296 130.216 142.565 130.288 142.833L130.317 142.93C130.364 143.128 130.454 143.3 130.588 143.446C130.695 143.611 130.837 143.741 131.013 143.837C131.187 143.947 131.375 144.007 131.577 144.017C131.779 144.062 131.98 144.053 132.182 143.99L132.544 143.837C132.771 143.702 132.953 143.521 133.087 143.293L133.24 142.931C133.313 142.662 133.313 142.393 133.24 142.125Z" fill="black"/>
<path d="M131.293 137.245C131.293 137.245 127.745 138.72 127.963 141.749L131.293 137.245Z" fill="white"/>
<path d="M131.293 137.245C131.293 137.245 127.745 138.72 127.963 141.749" stroke="black" stroke-width="1.5" stroke-linecap="round" stroke-linejoin="round"/>
<path d="M125.292 156.469C122.288 157.634 118.896 156.11 117.715 153.066C116.586 150.153 117.895 146.907 120.643 145.612" fill="white"/>
<path d="M125.292 156.469C122.288 157.634 118.896 156.11 117.715 153.066C116.586 150.153 117.895 146.907 120.643 145.612" stroke="black" stroke-width="1.5" stroke-linecap="round" stroke-linejoin="round"/>
<path d="M126.091 170.816C129.069 170.791 130.992 169.618 130.992 169.618" stroke="black" stroke-width="1.5" stroke-linecap="round" stroke-linejoin="round"/>
<path d="M133.328 175.744L125.909 171.16L131.05 169.708L133.328 175.744Z" fill="black"/>
<path d="M130.972 154.254C130.972 154.254 132.85 156.754 136.209 154.901L130.972 154.254Z" fill="white"/>
<path d="M130.972 154.254C130.972 154.254 132.85 156.754 136.209 154.901" stroke="black" stroke-width="1.5" stroke-linecap="round" stroke-linejoin="round"/>
<path d="M224.433 252.131L241.409 192.714C241.731 191.587 242.761 190.809 243.934 190.809H327.374C329.485 190.809 331.013 192.824 331.119 194.857L314.056 255.5L312.455 255.687L306.868 255.953" fill="black"/>
<path d="M224.433 252.131L241.409 192.714C241.731 191.587 242.761 190.809 243.934 190.809H327.374C329.485 190.809 331.013 192.824 331.119 194.857L314.056 255.5L312.455 255.687L306.868 255.953" stroke="black" stroke-width="1.5" stroke-linecap="round" stroke-linejoin="round"/>
<path d="M312.035 253.478L328.803 193.5C329.181 192.149 328.165 190.809 326.761 190.809H241.913C240.74 190.809 239.71 191.587 239.388 192.714L222.412 252.131" fill="white"/>
<path d="M312.035 253.478L328.803 193.5C329.181 192.149 328.165 190.809 326.761 190.809H241.913C240.74 190.809 239.71 191.587 239.388 192.714L222.412 252.131" stroke="black" stroke-width="1.5" stroke-linecap="round" stroke-linejoin="round"/>
<path d="M310.818 248.825L326.421 194.472C326.634 193.722 326.071 192.977 325.292 192.977H242.532C241.804 192.977 241.162 193.458 240.959 194.158L224.935 248.762L310.818 248.825Z" fill="white" stroke="black" stroke-width="1.5" stroke-linecap="round" stroke-linejoin="round"/>
<path d="M427.737 254.606H63.127V266.731H427.737V254.606Z" fill="black" stroke="black" stroke-width="1.5" stroke-linecap="round" stroke-linejoin="round"/>
<path d="M268.234 250.109H266.886C265.77 250.109 264.865 251.014 264.865 252.13C264.865 253.247 265.77 254.152 266.886 254.152H268.234C269.351 254.152 270.256 253.247 270.256 252.13C270.256 251.014 269.351 250.109 268.234 250.109Z" fill="white" stroke="black" stroke-width="1.5" stroke-linecap="round" stroke-linejoin="round"/>
<path d="M274.973 250.109H273.625C272.508 250.109 271.603 251.014 271.603 252.13C271.603 253.247 272.508 254.152 273.625 254.152H274.973C276.089 254.152 276.994 253.247 276.994 252.13C276.994 251.014 276.089 250.109 274.973 250.109Z" fill="white" stroke="black" stroke-width="1.5" stroke-linecap="round" stroke-linejoin="round"/>
<path d="M281.711 250.109H280.364C279.247 250.109 278.342 251.014 278.342 252.13C278.342 253.247 279.247 254.152 280.364 254.152H281.711C282.828 254.152 283.733 253.247 283.733 252.13C283.733 251.014 282.828 250.109 281.711 250.109Z" fill="white" stroke="black" stroke-width="1.5" stroke-linecap="round" stroke-linejoin="round"/>
<path d="M217.02 250.109H215.673C214.556 250.109 213.651 251.014 213.651 252.13C213.651 253.247 214.556 254.152 215.673 254.152H217.02C218.137 254.152 219.042 253.247 219.042 252.13C219.042 251.014 218.137 250.109 217.02 250.109Z" fill="white" stroke="black" stroke-width="1.5" stroke-linecap="round" stroke-linejoin="round"/>
<path d="M210.282 250.109H208.934C207.818 250.109 206.913 251.014 206.913 252.13C206.913 253.247 207.818 254.152 208.934 254.152H210.282C211.398 254.152 212.303 253.247 212.303 252.13C212.303 251.014 211.398 250.109 210.282 250.109Z" fill="white" stroke="black" stroke-width="1.5" stroke-linecap="round" stroke-linejoin="round"/>
<path d="M223.759 250.109H222.411C221.295 250.109 220.39 251.014 220.39 252.13C220.39 253.247 221.295 254.152 222.411 254.152H223.759C224.876 254.152 225.781 253.247 225.781 252.13C225.781 251.014 224.876 250.109 223.759 250.109Z" fill="white" stroke="black" stroke-width="1.5" stroke-linecap="round" stroke-linejoin="round"/>
<path d="M257.452 250.109H256.105C254.988 250.109 254.083 251.014 254.083 252.13C254.083 253.247 254.988 254.152 256.105 254.152H257.452C258.569 254.152 259.474 253.247 259.474 252.13C259.474 251.014 258.569 250.109 257.452 250.109Z" fill="white" stroke="black" stroke-width="1.5" stroke-linecap="round" stroke-linejoin="round"/>
<path d="M250.714 254.152H249.366C248.249 254.152 227.128 253.247 227.128 252.13C227.128 251.014 228.033 250.109 229.15 250.109H250.714C251.83 250.109 252.735 251.014 252.735 252.13C252.735 253.247 251.83 254.152 250.714 254.152Z" fill="white" stroke="black" stroke-width="1.5" stroke-linecap="round" stroke-linejoin="round"/>
<path d="M228.15 251.372H312.709V253.888C312.709 254.452 312.252 254.91 311.688 254.91H228.149C227.586 254.91 227.128 254.452 227.128 253.888V252.393C227.128 251.83 227.585 251.372 228.149 251.372L228.15 251.372Z" fill="black" stroke="black" stroke-width="1.5" stroke-linecap="round" stroke-linejoin="round"/>
<path d="M287.088 251.373H204.231C203.479 251.373 202.869 251.982 202.869 252.734V253.548C202.869 254.301 203.479 254.91 204.231 254.91H287.088C287.84 254.91 288.45 254.301 288.45 253.548V252.734C288.45 251.982 287.84 251.373 287.088 251.373Z" fill="white" stroke="black" stroke-width="1.5" stroke-linecap="round" stroke-linejoin="round"/>
<path d="M335.812 267.877L367.122 463.586" stroke="black" stroke-width="1.5" stroke-linecap="round" stroke-linejoin="round"/>
<path d="M403.199 267.877L437.877 463.586" stroke="black" stroke-width="1.5" stroke-linecap="round" stroke-linejoin="round"/>
<path d="M72.8407 267.877L56.137 464.495" stroke="black" stroke-width="1.5" stroke-linecap="round" stroke-linejoin="round"/>
<path d="M346.873 254.606H49.6497V266.731H346.873V254.606Z" fill="white" stroke="black" stroke-width="1.5" stroke-linecap="round" stroke-linejoin="round"/>
<path d="M396.226 427.229L360.239 463.587L337.327 443.341L357.088 422.62C357.088 422.62 370.994 433.882 378.82 427.186C391.174 416.622 396.226 427.229 396.226 427.229Z" fill="white" stroke="black" stroke-width="1.5" stroke-linecap="round" stroke-linejoin="round"/>
<path d="M339.822 456.632L187.959 321.604H139.959C125.019 321.604 109.392 308.958 109.869 288.872C110.223 273.943 112.179 274.36 112.179 274.36L204.212 274.243C214.235 274.243 222.94 279.976 227.236 288.315L366.103 423.629L339.822 456.632Z" fill="black" stroke="black" stroke-width="1.5" stroke-linecap="round" stroke-linejoin="round"/>
<path d="M316.237 443.044L279.841 299.759C276.993 287.69 264.132 271.949 251.193 271.949H144.641V322.488H234.554L271.302 450.553L316.236 443.044H316.237Z" fill="black"/>
<path d="M115.633 295.871L195.802 271.981C191.604 256.193 177.058 202.809 173.784 195.515C173.784 195.515 167.714 171.145 144.534 178.552L102.193 192.106C102.193 192.106 88.3833 196.935 89.0215 208.287C89.4386 215.718 115.633 295.871 115.633 295.871Z" fill="#1B82FB" stroke="black" stroke-width="1.5" stroke-linecap="round" stroke-linejoin="round"/>
<path d="M117.452 137.985L109.702 132.611L79.6737 145.174L84.0343 160.806L117.452 137.985Z" fill="white"/>
<path d="M78.8158 143.124C78.8158 143.124 90.1455 136.378 95.3484 134.02C104.322 129.955 109.851 128.216 113.027 129.861C113.706 130.214 114.859 131.683 109.702 132.611C106.647 133.161 102.379 138.055 102.379 138.055" fill="white"/>
<path d="M78.8158 143.124C78.8158 143.124 90.1455 136.378 95.3484 134.02C104.322 129.955 109.851 128.216 113.027 129.861C113.706 130.214 114.859 131.683 109.702 132.611C106.647 133.161 102.379 138.055 102.379 138.055" stroke="black" stroke-width="1.5" stroke-linecap="round" stroke-linejoin="round"/>
<path d="M81.8684 165.098C81.8684 165.098 96.4818 157.457 101.49 155.206C106.436 152.982 111.652 152.16 111.945 150.288C112.483 146.842 99.8646 149.269 96.1132 151.106" fill="white"/>
<path d="M81.8684 165.098C81.8684 165.098 96.4818 157.457 101.49 155.206C106.436 152.982 111.652 152.16 111.945 150.288C112.483 146.842 99.8646 149.269 96.1132 151.106" stroke="black" stroke-width="1.5" stroke-linecap="round" stroke-linejoin="round"/>
<path d="M77.4115 144.975L83.2377 163.748L103.388 150.316L115.541 140.243L107.607 130.009L77.4115 144.975Z" fill="white"/>
<path d="M102.044 135.646C107.283 132.104 116.147 131.01 117.697 131.41C119.409 131.851 119.479 134.106 116.192 134.66C114.886 134.881 113.491 135.752 111.422 136.122" fill="white"/>
<path d="M102.044 135.646C107.283 132.104 116.147 131.01 117.697 131.41C119.409 131.851 119.479 134.106 116.192 134.66C114.886 134.881 113.491 135.752 111.422 136.122" stroke="black" stroke-width="1.5" stroke-linecap="round" stroke-linejoin="round"/>
<path d="M103.773 139.253C108.456 136.502 113.274 134.563 116.752 134.356C117.805 134.293 119.887 134.204 120.626 134.804C122.45 136.283 119.046 137.75 115.632 138.586" fill="white"/>
<path d="M103.773 139.253C108.456 136.502 113.274 134.563 116.752 134.356C117.805 134.293 119.887 134.204 120.626 134.804C122.45 136.283 119.046 137.75 115.632 138.586" stroke="black" stroke-width="1.5" stroke-linecap="round" stroke-linejoin="round"/>
<path d="M100.01 152.359C100.01 152.359 108.632 146.517 118.991 140.421C119.654 140.031 120.756 137.855 117.452 137.984C113.276 138.148 105.8 143.227 105.8 143.227" fill="white"/>
<path d="M100.01 152.359C100.01 152.359 108.632 146.517 118.991 140.421C119.654 140.031 120.756 137.855 117.452 137.984C113.276 138.148 105.8 143.227 105.8 143.227" stroke="black" stroke-width="1.5" stroke-linecap="round" stroke-linejoin="round"/>
<path d="M96.1941 145.352L100.08 136.759L132.296 132.101L136.589 147.752L96.1941 145.352Z" fill="white"/>
<path d="M131.978 129.901C131.978 129.901 118.791 129.938 113.117 130.59C103.33 131.715 97.6928 133.065 95.8148 136.109C95.4131 136.76 95.18 138.613 100.08 136.759C102.984 135.66 109.16 137.664 109.16 137.664" fill="white"/>
<path d="M131.978 129.901C131.978 129.901 118.791 129.938 113.117 130.59C103.33 131.715 97.6928 133.065 95.8148 136.109C95.4131 136.76 95.18 138.613 100.08 136.759C102.984 135.66 109.16 137.664 109.16 137.664" stroke="black" stroke-width="1.5" stroke-linecap="round" stroke-linejoin="round"/>
<path d="M140.653 150.319C140.653 150.319 124.191 151.277 118.738 151.919C113.351 152.553 108.454 154.53 107.241 153.073C105.009 150.394 117.08 145.99 121.242 145.637" fill="white"/>
<path d="M140.653 150.319C140.653 150.319 124.191 151.277 118.738 151.919C113.351 152.553 108.454 154.53 107.241 153.073C105.009 150.394 117.08 145.99 121.242 145.637" stroke="black" stroke-width="1.5" stroke-linecap="round" stroke-linejoin="round"/>
<path d="M134.133 130.767L138.785 149.866L114.596 148.701L98.994 146.307L100.539 133.45L134.133 130.767Z" fill="white"/>
<path d="M108.209 135.426C101.896 135.08 93.7284 138.698 92.6044 139.837C91.3632 141.095 92.4622 143.066 95.5667 141.851C96.7992 141.37 98.4448 141.4 100.409 140.653" fill="white"/>
<path d="M108.209 135.426C101.896 135.08 93.7284 138.698 92.6044 139.837C91.3632 141.095 92.4622 143.066 95.5667 141.851C96.7992 141.37 98.4448 141.4 100.409 140.653" stroke="black" stroke-width="1.5" stroke-linecap="round" stroke-linejoin="round"/>
<path d="M108.579 139.409C103.149 139.456 98.019 140.269 94.9293 141.878C93.9933 142.366 92.1617 143.36 91.8356 144.254C91.0323 146.46 94.7056 145.969 98.0634 144.931" fill="white"/>
<path d="M108.579 139.409C103.149 139.456 98.019 140.269 94.9293 141.878C93.9933 142.366 92.1617 143.36 91.8356 144.254C91.0323 146.46 94.7056 145.969 98.0634 144.931" stroke="black" stroke-width="1.5" stroke-linecap="round" stroke-linejoin="round"/>
<path d="M118.544 148.716C118.544 148.716 108.146 148.137 96.1267 148.232C95.3579 148.238 93.2938 146.938 96.1941 145.351C99.8606 143.345 108.884 143.859 108.884 143.859" fill="white"/>
<path d="M118.544 148.716C118.544 148.716 108.146 148.137 96.1267 148.232C95.3579 148.238 93.2938 146.938 96.1941 145.351C99.8606 143.345 108.884 143.859 108.884 143.859" stroke="black" stroke-width="1.5" stroke-linecap="round" stroke-linejoin="round"/>
<path d="M169.867 205.631L207.367 148.653L207.774 148.037C209.689 145.13 210.716 141.601 210.491 137.859C209.937 128.655 202.027 121.641 192.823 122.194L129.382 126.008L129.856 154.626L161.986 155.492L145.62 180.359" fill="#1B82FB"/>
<path d="M169.867 205.631L207.367 148.653L207.774 148.037C209.689 145.13 210.716 141.601 210.491 137.859C209.937 128.655 202.027 121.641 192.823 122.194L129.382 126.008L129.856 154.626L161.986 155.492L145.62 180.359" stroke="black" stroke-width="1.5" stroke-linecap="round" stroke-linejoin="round"/>
<path d="M104.559 193.433L78.5213 177.367L97.4131 162.121L80.7134 138.877L43.1307 165.379C41.1233 166.669 39.2971 168.457 37.9608 170.623C33.1852 178.362 35.5882 188.508 43.3275 193.283L44.1267 193.777L91.0417 225.219" fill="#1B82FB"/>
<path d="M104.559 193.433L78.5213 177.367L97.4131 162.121L80.7134 138.877L43.1307 165.379C41.1233 166.669 39.2971 168.457 37.9608 170.623C33.1852 178.362 35.5882 188.508 43.3275 193.283L44.1267 193.777L91.0417 225.219" stroke="black" stroke-width="1.5" stroke-linecap="round" stroke-linejoin="round"/>
<path d="M335.555 228.494H316.17V254.633H335.555V228.494Z" fill="#1B82FB" stroke="black" stroke-width="1.5" stroke-linecap="round" stroke-linejoin="round"/>
<path d="M343.655 239.636C343.655 243.666 340.857 246.929 337.404 246.929C336.761 246.929 336.141 246.816 335.555 246.603V232.669C336.14 232.46 336.761 232.346 337.404 232.346C340.857 232.346 343.655 235.609 343.655 239.636Z" stroke="black" stroke-width="1.5" stroke-linecap="round" stroke-linejoin="round"/>
<path d="M250.308 379.008L234.554 322.489H216.842" stroke="white" stroke-width="1.5" stroke-linecap="round" stroke-linejoin="round"/>
<path d="M293.571 352.211L313.877 433.901" stroke="white" stroke-width="1.5" stroke-linecap="round" stroke-linejoin="round"/>
<path d="M172.506 317.115L147.997 218.33C147.458 216.008 145.389 214.365 143.006 214.365H67.5994C64.3042 214.365 61.8661 217.431 62.6067 220.641L88.7883 327.355C89.3247 329.68 91.3948 331.327 93.781 331.327H221.864C224.693 331.327 226.987 329.033 226.987 326.204C226.987 323.374 224.693 321.08 221.864 321.08H177.497C175.114 321.08 173.046 319.437 172.506 317.116L172.506 317.115Z" fill="white" stroke="black" stroke-width="1.5" stroke-linecap="round" stroke-linejoin="round"/>
<path d="M103.978 331.327L91.9703 463.66" stroke="black" stroke-width="1.5" stroke-linecap="round" stroke-linejoin="round"/>
<path d="M209.054 331.327L233.575 462.928" stroke="black" stroke-width="1.5" stroke-linecap="round" stroke-linejoin="round"/>
<path d="M161.884 331.327L186.404 462.928" stroke="black" stroke-width="1.5" stroke-linecap="round" stroke-linejoin="round"/>
<path d="M475.51 464.021H451.796L448.03 385.803H479.276L475.51 464.021Z" fill="white" stroke="black" stroke-width="1.5" stroke-linecap="round" stroke-linejoin="round"/>
<path d="M465.864 385.804C465.864 385.804 467.19 347.482 494.163 335.102C494.163 335.102 495.268 343.724 487.973 351.02C480.677 358.316 479.711 358.991 479.277 366.938C478.945 373.018 473.925 374.682 471.17 374.455C470.246 374.379 467.484 374.048 467.484 374.048" fill="white"/>
<path d="M465.864 385.804C465.864 385.804 467.19 347.482 494.163 335.102C494.163 335.102 495.268 343.724 487.973 351.02C480.677 358.316 479.711 358.991 479.277 366.938C478.945 373.018 473.925 374.682 471.17 374.455C470.246 374.379 467.484 374.048 467.484 374.048" stroke="black" stroke-width="1.5" stroke-linecap="round" stroke-linejoin="round"/>
<path d="M461.415 386.081C461.415 386.081 460.504 370.298 460.079 365.047C458.908 350.578 450.588 327.694 428.623 316.241C428.623 316.241 428.066 324.915 435.81 331.734C443.553 338.553 444.992 339.126 445.497 347.069C446.002 355.011 454.064 354.057 454.064 354.057L457.965 353.64C457.965 353.64 459.207 357.09 460.079 365.047" fill="white"/>
<path d="M461.415 386.081C461.415 386.081 460.504 370.298 460.079 365.047M460.079 365.047C458.908 350.578 450.588 327.694 428.623 316.241C428.623 316.241 428.066 324.915 435.81 331.734C443.553 338.553 444.992 339.126 445.497 347.069C446.002 355.011 454.064 354.057 454.064 354.057L457.965 353.64C457.965 353.64 459.207 357.09 460.079 365.047Z" stroke="black" stroke-width="1.5" stroke-linecap="round" stroke-linejoin="round"/>
<path d="M463.653 385.804C463.653 383.151 464.243 330.975 474.265 311.52" stroke="black" stroke-width="1.5" stroke-linecap="round" stroke-linejoin="round"/>
<path d="M474.265 315.516C476.382 315.516 478.097 313.8 478.097 311.684C478.097 309.567 476.382 307.852 474.265 307.852C472.149 307.852 470.433 309.567 470.433 311.684C470.433 313.8 472.149 315.516 474.265 315.516Z" fill="white" stroke="black" stroke-width="1.5" stroke-linecap="round" stroke-linejoin="round"/>
<path d="M265.276 206.04H257.375L259.641 198.138H267.543L265.276 206.04Z" fill="#FCFCFC" stroke="black" stroke-width="1.5" stroke-linecap="round" stroke-linejoin="round"/>
<path d="M260.323 202.18L261.282 203.526L264.98 200.653" stroke="black" stroke-width="1.5" stroke-linecap="round" stroke-linejoin="round"/>
<path d="M271.169 199.602H297.089" stroke="black" stroke-width="1.5" stroke-linecap="round" stroke-linejoin="round"/>
<path d="M269.851 204.201H282.276" stroke="black" stroke-width="1.5" stroke-linecap="round" stroke-linejoin="round"/>
<path d="M261.601 218.861H253.699L255.964 210.959H263.866L261.601 218.861Z" fill="#FCFCFC" stroke="black" stroke-width="1.5" stroke-linecap="round" stroke-linejoin="round"/>
<path d="M267.493 212.422H293.413" stroke="black" stroke-width="1.5" stroke-linecap="round" stroke-linejoin="round"/>
<path d="M266.175 217.021H278.6" stroke="black" stroke-width="1.5" stroke-linecap="round" stroke-linejoin="round"/>
<path d="M257.988 231.458H250.086L252.352 223.556H260.254L257.988 231.458Z" fill="#FCFCFC" stroke="black" stroke-width="1.5" stroke-linecap="round" stroke-linejoin="round"/>
<path d="M263.881 225.019H289.8" stroke="black" stroke-width="1.5" stroke-linecap="round" stroke-linejoin="round"/>
<path d="M262.562 229.618H274.987" stroke="black" stroke-width="1.5" stroke-linecap="round" stroke-linejoin="round"/>
<path d="M254.312 244.279H246.41L248.676 236.376H256.578L254.312 244.279Z" fill="#FCFCFC" stroke="black" stroke-width="1.5" stroke-linecap="round" stroke-linejoin="round"/>
<path d="M260.204 237.84H286.124" stroke="black" stroke-width="1.5" stroke-linecap="round" stroke-linejoin="round"/>
<path d="M258.886 242.439H271.312" stroke="black" stroke-width="1.5" stroke-linecap="round" stroke-linejoin="round"/>
<path d="M256.647 215.001L257.607 216.346L261.303 213.473" stroke="black" stroke-width="1.5" stroke-linecap="round" stroke-linejoin="round"/>
<path d="M253.014 227.671L253.974 229.016L257.671 226.143" stroke="black" stroke-width="1.5" stroke-linecap="round" stroke-linejoin="round"/>
<path d="M249.338 240.491L250.297 241.837L253.994 238.963" stroke="black" stroke-width="1.5" stroke-linecap="round" stroke-linejoin="round"/>
<path d="M480.043 251.711C495.592 251.711 508.197 239.105 508.197 223.556C508.197 208.007 495.592 195.401 480.043 195.401C464.493 195.401 451.888 208.007 451.888 223.556C451.888 239.105 464.493 251.711 480.043 251.711Z" fill="white" stroke="black" stroke-width="1.5" stroke-linecap="round" stroke-linejoin="round"/>
<path d="M467.173 224.113L475.382 232.322L492.913 214.791" stroke="black" stroke-width="1.5" stroke-linecap="round" stroke-linejoin="round"/>
</g>
<defs>
<clipPath id="clip0_7514_2443">
<rect width="473.703" height="458.34" fill="white" transform="translate(34.9999)"/>
</clipPath>
</defs>
</svg>
