<svg width="543" height="583" viewBox="0 0 543 583" fill="none" xmlns="http://www.w3.org/2000/svg">
<path d="M10.3936 424.404C-7.98827 488.631 187.146 508.679 224.89 513.212C262.633 517.746 364.739 522.639 413.544 517.746C476.025 511.484 525.674 456.814 533.847 392.03C540.384 340.202 426.273 334.287 368.4 337.807C303.802 339.484 175.891 340.654 173.689 340.474C170.817 340.24 33.3709 344.12 10.3936 424.404Z" fill="#002D6C"/>
<g clip-path="url(#clip0_7503_1869)">
<path d="M437.027 0.504395H107.629V234.814H437.027V0.504395Z" fill="white" stroke="#1B82FB" stroke-width="1.5" stroke-linecap="round" stroke-linejoin="round"/>
<path d="M217.27 15.9585V219.36" stroke="#1B82FB" stroke-width="1.5" stroke-linecap="round" stroke-linejoin="round"/>
<path d="M327.385 15.9585V219.36" stroke="#1B82FB" stroke-width="1.5" stroke-linecap="round" stroke-linejoin="round"/>
<path d="M158.112 23.7065L132.167 28.4419L136.908 54.3549L162.853 49.6195L158.112 23.7065Z" fill="white" stroke="black" stroke-width="1.5" stroke-linecap="round" stroke-linejoin="round"/>
<path d="M136.586 33.7824L148.925 31.4409" stroke="black" stroke-width="1.5" stroke-linecap="round" stroke-linejoin="round"/>
<path d="M137.358 37.1371L154.045 33.9707" stroke="black" stroke-width="1.5" stroke-linecap="round" stroke-linejoin="round"/>
<path d="M138.153 40.5061L156.189 37.084" stroke="black" stroke-width="1.5" stroke-linecap="round" stroke-linejoin="round"/>
<path d="M138.764 44.04L153.022 41.3345" stroke="black" stroke-width="1.5" stroke-linecap="round" stroke-linejoin="round"/>
<path d="M272.531 115.105L246.693 109.818L241.4 135.624L267.238 140.911L272.531 115.105Z" fill="white" stroke="#1B82FB" stroke-width="1.5" stroke-linecap="round" stroke-linejoin="round"/>
<path d="M248.796 116.421L261.116 118.852" stroke="#1B82FB" stroke-width="1.5" stroke-linecap="round" stroke-linejoin="round"/>
<path d="M248.256 119.821L264.92 123.109" stroke="#1B82FB" stroke-width="1.5" stroke-linecap="round" stroke-linejoin="round"/>
<path d="M247.734 123.242L265.744 126.796" stroke="#1B82FB" stroke-width="1.5" stroke-linecap="round" stroke-linejoin="round"/>
<path d="M246.98 126.749L261.217 129.558" stroke="#1B82FB" stroke-width="1.5" stroke-linecap="round" stroke-linejoin="round"/>
<path d="M259.279 35.1171L231.221 43.4722L239.586 71.4952L267.644 63.1401L259.279 35.1171Z" fill="white" stroke="black" stroke-width="1.5" stroke-linecap="round" stroke-linejoin="round"/>
<path d="M241.4 64.6352L246.019 55.1359L249.728 57.402L253.874 50.3115L262.652 58.4537" fill="white"/>
<path d="M241.4 64.6352L246.019 55.1359L249.728 57.402L253.874 50.3115L262.652 58.4537" stroke="#1B82FB" stroke-width="1.5" stroke-linecap="round" stroke-linejoin="round"/>
<path d="M247.564 49.9042C248.35 49.9042 248.987 49.2683 248.987 48.4839C248.987 47.6994 248.35 47.0635 247.564 47.0635C246.779 47.0635 246.142 47.6994 246.142 48.4839C246.142 49.2683 246.779 49.9042 247.564 49.9042Z" fill="white" stroke="#1B82FB" stroke-width="1.5" stroke-linecap="round" stroke-linejoin="round"/>
<path d="M305.627 160.195L279.492 163.742L283.043 189.844L309.177 186.298L305.627 160.195Z" fill="white" stroke="black" stroke-width="1.5" stroke-linecap="round" stroke-linejoin="round"/>
<path d="M283.662 169.278L296.094 167.502" stroke="black" stroke-width="1.5" stroke-linecap="round" stroke-linejoin="round"/>
<path d="M284.279 172.665L301.094 170.263" stroke="black" stroke-width="1.5" stroke-linecap="round" stroke-linejoin="round"/>
<path d="M284.919 176.067L303.092 173.471" stroke="black" stroke-width="1.5" stroke-linecap="round" stroke-linejoin="round"/>
<path d="M285.368 179.624L299.734 177.572" stroke="black" stroke-width="1.5" stroke-linecap="round" stroke-linejoin="round"/>
<path d="M293.617 156.837L289.537 157.114L290.071 164.955L294.15 164.678L293.617 156.837Z" fill="#1B82FB" stroke="black" stroke-width="1.5" stroke-linecap="round" stroke-linejoin="round"/>
<path d="M309.571 71.3929L283.733 66.106L278.44 91.912L304.278 97.1989L309.571 71.3929Z" fill="white" stroke="black" stroke-width="1.5" stroke-linecap="round" stroke-linejoin="round"/>
<path d="M285.836 72.7085L298.156 75.1395" stroke="black" stroke-width="1.5" stroke-linecap="round" stroke-linejoin="round"/>
<path d="M285.296 76.1084L301.96 79.3966" stroke="black" stroke-width="1.5" stroke-linecap="round" stroke-linejoin="round"/>
<path d="M284.774 79.5298L302.785 83.0838" stroke="black" stroke-width="1.5" stroke-linecap="round" stroke-linejoin="round"/>
<path d="M284.02 83.0361L298.257 85.8453" stroke="black" stroke-width="1.5" stroke-linecap="round" stroke-linejoin="round"/>
<path d="M388.77 48.2737L363.852 39.6406L355.208 64.5279L380.126 73.161L388.77 48.2737Z" fill="white" stroke="black" stroke-width="1.5" stroke-linecap="round" stroke-linejoin="round"/>
<path d="M365.068 46.46L376.962 50.4876" stroke="black" stroke-width="1.5" stroke-linecap="round" stroke-linejoin="round"/>
<path d="M364.086 49.7598L380.172 55.2065" stroke="black" stroke-width="1.5" stroke-linecap="round" stroke-linejoin="round"/>
<path d="M363.118 53.0835L380.504 58.9703" stroke="black" stroke-width="1.5" stroke-linecap="round" stroke-linejoin="round"/>
<path d="M361.909 56.459L375.653 61.1131" stroke="black" stroke-width="1.5" stroke-linecap="round" stroke-linejoin="round"/>
<path d="M123.869 80.7007L121.575 78.7656C120.886 75.2681 120.01 71.8386 119.218 69.4607C118.807 68.2214 115.984 61.5366 106.396 60.8489C98.2907 60.2676 92.2545 65.4236 89.2579 72.1905C87.9099 75.2351 87.5979 78.635 88.2231 81.9051C89.8076 90.1912 94.3085 112.473 94.3085 112.473C94.3085 112.473 95.0792 122.971 108.207 120.292C119.235 118.042 116.465 108.502 116.465 108.502L114.512 98.7391C118.958 96.9709 121.441 94.6213 122.464 91.7132C123.051 90.0533 122.832 86.4825 122.233 82.5282L123.859 81.7981C124.253 81.5404 124.259 80.9658 123.869 80.7007Z" fill="#FDFDFD" stroke="black" stroke-width="1.5" stroke-linecap="round" stroke-linejoin="round"/>
<path d="M130.793 55.3277C129.493 48.9538 123.264 44.842 116.882 46.146C115.312 46.4629 113.883 47.086 112.63 47.9317C110.301 45.2471 106.631 43.8549 102.902 44.6186C98.9145 45.4294 95.9618 48.472 95.0503 52.1734C94.7033 52.2265 94.3564 52.2851 94.0094 52.3557C83.8576 54.4234 77.3053 64.3277 79.3756 74.4669C79.6033 75.5791 79.9287 76.6463 80.3349 77.6656C81.8042 82.6171 85.9669 95.1853 90.9967 97.5645C95.9186 99.8932 102.726 97.3162 106.479 94.6706C110.232 92.0243 109.791 85.1336 109.791 85.1336L108.986 81.1611L109.018 81.1645L112.441 80.4479L111.362 75.45C115.201 74.1628 113.821 68.7053 113.821 68.7053L118.513 67.5796C118.734 68.0863 118.972 68.7214 119.218 69.4623C120.006 69.4683 120.801 69.3916 121.6 69.2274C127.982 67.9234 132.099 61.7023 130.793 55.3284L130.793 55.3277Z" fill="black"/>
<path d="M120.134 75.5731L120.124 75.4856C120.129 75.351 120.101 75.2259 120.039 75.1095C120 74.9884 119.933 74.8841 119.837 74.7953C119.749 74.7004 119.644 74.6331 119.523 74.5934C119.406 74.5322 119.281 74.5046 119.146 74.5093L118.887 74.5443C118.721 74.5907 118.577 74.6742 118.456 74.7953L118.303 74.9924C118.214 75.1445 118.17 75.3086 118.169 75.4849L118.179 75.5724C118.174 75.707 118.202 75.8321 118.264 75.9485C118.303 76.0696 118.37 76.1739 118.466 76.2628C118.554 76.3576 118.659 76.4249 118.78 76.4646C118.897 76.5258 119.022 76.5534 119.157 76.5487L119.416 76.5137C119.582 76.4673 119.725 76.3839 119.847 76.2628L120 76.0656C120.089 75.9135 120.133 75.7494 120.134 75.5731Z" fill="black"/>
<path d="M119.513 70.9614C119.513 70.9614 116.244 71.7096 115.988 74.3459" stroke="black" stroke-width="1.5" stroke-linecap="round" stroke-linejoin="round"/>
<path d="M111.535 86.6057C108.78 87.1675 106.084 85.3623 105.514 82.5733C104.968 79.9041 106.57 77.3069 109.124 76.5957" fill="#FDFDFD"/>
<path d="M111.535 86.6057C108.78 87.1675 106.084 85.3623 105.514 82.5733C104.968 79.9041 106.57 77.3069 109.124 76.5957" stroke="black" stroke-width="1.5" stroke-linecap="round" stroke-linejoin="round"/>
<path d="M110.122 99.0523C112.689 99.4654 114.514 98.7388 114.514 98.7388" stroke="black" stroke-width="1.5" stroke-linecap="round" stroke-linejoin="round"/>
<path d="M115.628 104.345L109.915 99.3211L114.552 98.8252L115.628 104.345Z" fill="black"/>
<path d="M116.747 85.5327C116.747 85.5327 117.997 87.9556 121.158 86.8542" stroke="black" stroke-width="1.5" stroke-linecap="round" stroke-linejoin="round"/>
<path d="M86.0221 442.478L85.5337 463.696H131.63C131.63 463.696 138.29 453.251 122.961 451.976C113.249 451.168 115.966 441.468 115.966 441.468" fill="black"/>
<path d="M129.71 204.106L125.446 445.929L78.3798 445.988L73.2753 208.808" fill="#1B82FB"/>
<path d="M114.584 265.812L113.55 445.988" stroke="#FDFDFD" stroke-width="1.5" stroke-linecap="round" stroke-linejoin="round"/>
<path d="M128.905 237.42L125.446 445.929L78.3798 445.988L73.4323 208.614" stroke="black" stroke-width="1.5" stroke-linecap="round" stroke-linejoin="round"/>
<path d="M70.2019 436.485C70.2019 436.485 63.971 442.685 70.6075 449.813C81.0827 461.064 69.374 464.11 69.374 464.11L31.3046 432.91L44.2468 417.098" fill="black"/>
<path d="M161.978 338.092L74.0898 444.346L36.5479 416.135L122.82 312.021L103.822 206.18L150.114 202.477L169.665 307.554C171.338 318.297 168.537 329.42 161.979 338.092L161.978 338.092Z" fill="#1B82FB"/>
<path d="M139.439 203.258L157.679 307.866C158.722 314.941 156.856 322.135 152.505 327.814L62.1238 435.394" stroke="#FDFDFD" stroke-width="1.5" stroke-linecap="round" stroke-linejoin="round"/>
<path d="M73.4322 208.614L150.22 202.464L169.649 307.475C171.355 318.267 168.542 329.449 161.933 338.154L74.0365 444.418L36.6031 416.062L122.805 312.029L108.277 236.17" stroke="black" stroke-width="1.5" stroke-linecap="round" stroke-linejoin="round"/>
<path d="M146.013 93.9864C146.026 94.1492 143.745 95.8011 140.769 94.4809C140.908 94.3995 141.033 94.2804 141.145 94.1183C141.565 93.5241 143.407 93.0733 145.092 92.7793C145.624 93.399 146.007 93.8734 146.013 93.9864Z" fill="#FDFDFD" stroke="black" stroke-width="1.5" stroke-linecap="round" stroke-linejoin="round"/>
<path d="M145.092 92.7787C143.407 93.0727 141.565 93.5235 141.145 94.1176C141.033 94.2805 140.908 94.3989 140.769 94.4803C140.494 94.3551 140.212 94.2111 139.924 94.0295C139.498 93.7664 139.06 93.4414 138.615 93.035C138.471 92.9038 138.327 92.7719 138.189 92.6468C139.26 91.8272 141.384 91.1638 143.182 90.7197" fill="#FDFDFD"/>
<path d="M145.092 92.7787C143.407 93.0727 141.565 93.5235 141.145 94.1176C141.033 94.2805 140.908 94.3989 140.769 94.4803C140.494 94.3551 140.212 94.2111 139.924 94.0295C139.498 93.7664 139.06 93.4414 138.615 93.035C138.471 92.9038 138.327 92.7719 138.189 92.6468C139.26 91.8272 141.384 91.1638 143.182 90.7197" stroke="black" stroke-width="1.5" stroke-linecap="round" stroke-linejoin="round"/>
<path d="M143.181 90.7202C141.383 91.1643 139.26 91.8277 138.188 92.6472C137.299 91.8398 136.578 91.2147 135.921 90.8265C136.942 89.4815 138.769 88.6236 140.159 88.2104" fill="#FDFDFD"/>
<path d="M143.181 90.7202C141.383 91.1643 139.26 91.8277 138.188 92.6472C137.299 91.8398 136.578 91.2147 135.921 90.8265C136.942 89.4815 138.769 88.6236 140.159 88.2104" stroke="black" stroke-width="1.5" stroke-linecap="round" stroke-linejoin="round"/>
<path d="M132.433 82.4913C134.692 81.9066 141.117 83.3855 147.935 88.0867C151.648 90.6469 165.725 106.211 168.632 109.442L169.364 110.004L147.579 114.787C147.579 114.787 139.089 99.7882 137.442 97.7919C134.549 94.283 131.916 91.2746 133.503 90.5702C135.09 89.8657 136.318 90.9362 138.618 93.0362C142.567 96.644 146.032 94.1861 146.013 93.9849C145.98 93.6498 143.711 90.9315 141.628 89.2924C138.68 86.9738 136.332 85.986 132.544 84.4439C131.576 84.0496 131.78 82.6615 132.434 82.4926L132.433 82.4913Z" fill="#FDFDFD" stroke="black" stroke-width="1.5" stroke-linecap="round" stroke-linejoin="round"/>
<path d="M204.159 155.005C204.119 154.94 204.081 154.874 204.04 154.808C203.953 154.67 203.86 154.534 203.768 154.397C203.674 154.256 203.586 154.111 203.487 153.973L163.954 98.3286L152.88 105.683L141.746 112.96L143.327 114.709C143.327 114.709 141.907 113.861 139.64 112.227C133.413 107.737 128.878 105.901 121.304 107.095L81.018 111.03C81.018 111.03 78.5564 111.274 75.4992 112.619C73.3757 113.433 71.4085 114.709 69.7674 116.411C68.3958 117.731 67.1239 119.377 66.1214 121.41L53.8475 156.465C53.0566 158.723 52.0744 160.905 51.0753 163.079C49.0057 167.583 49.1661 172.812 51.5118 177.179C52.8073 179.591 73.1817 203.809 73.1817 203.809C73.2315 203.878 73.4323 208.613 73.4323 208.613L150.221 202.464C149.351 182.318 147.996 167.155 147.588 157.149C159.773 164.779 178.315 176.193 182.472 177.654C184.727 178.447 187.096 178.834 189.433 178.841C192.995 179.131 196.674 178.228 199.817 176.002C206.604 171.192 208.422 161.998 204.159 155.006V155.005Z" fill="#FDFDFF"/>
<path d="M73.1817 203.809C73.1817 203.809 52.8073 179.591 51.5118 177.179C49.1661 172.812 49.0057 167.583 51.0753 163.079C52.0744 160.905 53.0566 158.723 53.8475 156.465L66.1214 121.41C67.1239 119.377 68.3958 117.731 69.7674 116.411C71.4085 114.709 73.3757 113.433 75.4992 112.619C78.5564 111.274 81.018 111.03 81.018 111.03L121.304 107.095C127.977 106.148 132.813 107.551 136.318 109.982C136.819 110.33 143.327 114.709 143.327 114.709L141.746 112.96L152.88 105.683L163.954 98.3286L203.487 153.973C203.586 154.111 203.674 154.256 203.768 154.397C203.86 154.534 203.953 154.67 204.04 154.808C204.081 154.874 204.119 154.94 204.159 155.005V155.006C208.422 161.998 206.604 171.192 199.817 176.002C196.674 178.228 192.995 179.131 189.433 178.841C187.096 178.834 184.727 178.447 182.472 177.654C178.315 176.193 159.773 164.779 147.588 157.149C147.996 167.155 149.351 182.318 150.221 202.464L73.4323 208.613L73.1817 203.809ZM73.1817 203.809C73.119 203.741 73.2315 203.878 73.1817 203.809Z" stroke="black" stroke-width="1.5" stroke-linecap="round" stroke-linejoin="round"/>
<path d="M73.4322 208.614L71.3964 154.376" stroke="black" stroke-width="1.5" stroke-linecap="round" stroke-linejoin="round"/>
<path d="M136.652 150.25C136.652 150.25 141.265 153.19 147.588 157.149" stroke="black" stroke-width="1.5" stroke-linecap="round" stroke-linejoin="round"/>
<path d="M187.092 145.49L141.727 113.585" stroke="black" stroke-width="1.5" stroke-linecap="round" stroke-linejoin="round"/>
<path d="M168.045 104.097L147.763 117.659" stroke="black" stroke-width="1.5" stroke-linecap="round" stroke-linejoin="round"/>
<path d="M396.05 410.366L397.18 446.077H419.951L420.941 410.81L396.05 410.366Z" fill="#FFFDFD" stroke="black" stroke-width="1.5" stroke-linecap="round" stroke-linejoin="round"/>
<path d="M421.622 464.11H413.392C412.593 462.267 411.121 460.037 411.121 460.037L408.493 464.11H375.006C375.006 464.11 370.877 453.333 384.108 452.751C398.092 452.136 396.144 434.916 396.144 434.916H406.181L409.259 441.394L412.73 434.916H420.881L421.622 464.11Z" fill="#1B82FB" stroke="black" stroke-width="1.5" stroke-linecap="round" stroke-linejoin="round"/>
<path d="M457.972 409.732L459.736 446.077H482.507L482.863 410.81L457.972 409.732Z" fill="#FFFDFD" stroke="black" stroke-width="1.5" stroke-linecap="round" stroke-linejoin="round"/>
<path d="M484.179 464.11H475.948C475.15 462.267 473.677 460.037 473.677 460.037L471.049 464.11H436.928C436.928 464.11 432.799 453.333 446.031 452.751C460.015 452.136 458.701 434.916 458.701 434.916H468.737L471.816 441.394L475.286 434.916H483.437L484.179 464.11Z" fill="#1B82FB" stroke="black" stroke-width="1.5" stroke-linecap="round" stroke-linejoin="round"/>
<path d="M401.154 202.236L375.167 295.51C374.302 298.907 374.164 302.447 374.76 305.901L383.192 424.816L427.701 424.418L421.117 302.658L432.763 264.311L444.044 424.83L488.075 424.275L477.323 202.147L401.155 202.236H401.154Z" fill="#FCFCFC"/>
<path d="M432.762 264.311L430.281 234.46" stroke="black" stroke-width="1.5" stroke-linecap="round" stroke-linejoin="round"/>
<path d="M401.154 202.237L375.167 295.51C374.302 298.907 374.164 302.447 374.76 305.901L383.192 424.816L427.701 424.418L421.117 302.658L432.763 264.311L444.044 424.83L488.075 424.275L476.718 202.193L401.155 202.237H401.154Z" stroke="black" stroke-width="1.5" stroke-linecap="round" stroke-linejoin="round"/>
<path d="M454.542 91.957L492.08 160.168L454.791 167.912L450.777 92.7389" fill="#1B82FB"/>
<path d="M454.542 91.957L492.08 160.168L454.791 167.912L450.777 92.7389" stroke="black" stroke-width="1.5" stroke-linecap="round" stroke-linejoin="round"/>
<path d="M459.782 69.3754C457.031 56.166 448.101 47.0812 434.854 47.0577C421.605 47.0341 410.967 58.5311 410.943 72.0231L427.6 71.1242L443.68 98.0523C443.68 98.0523 464.839 93.6572 459.782 69.3754Z" fill="#1B82FB" stroke="black" stroke-width="1.5" stroke-linecap="round" stroke-linejoin="round"/>
<path d="M456.636 95.7617L450.972 98.9423L449.449 95.7584C449.449 95.7584 450.925 94.9402 451.996 94.1334C453.7 92.8503 454.71 91.8794 454.71 91.8794L456.636 95.7617Z" fill="#050505" stroke="black" stroke-width="1.5" stroke-linecap="round" stroke-linejoin="round"/>
<path d="M448.424 85.7546C451.267 85.7109 453.53 83.3317 453.48 80.4411C453.431 77.675 451.28 75.4479 448.604 75.2999C446.484 65.9997 438.793 59.0068 429.035 59.1582C421.698 59.2719 419.09 63.2686 415.622 69.2529C413.788 72.4194 414.319 90.9887 416.793 94.9733C418.448 97.6378 421.41 99.4256 426.184 100.209L426.416 111.026C426.416 111.026 425.79 121.469 437.155 120.92C448.682 120.364 448.568 110.25 448.568 110.25C448.568 110.25 448.234 87.1487 448.327 85.7512C448.36 85.7512 448.391 85.7553 448.424 85.7546Z" fill="#FFFDFD" stroke="black" stroke-width="1.5" stroke-linecap="round" stroke-linejoin="round"/>
<path d="M435.865 98.2446L426.39 108.995L426.183 100.209C426.183 100.209 429.278 100.489 432.13 99.6684C434.983 98.8482 435.865 98.2446 435.865 98.2446Z" fill="black" stroke="black" stroke-width="1.5" stroke-linecap="round" stroke-linejoin="round"/>
<path d="M411.51 71.8176L434.354 70.8326L437.178 66.4873L439.365 70.9611C439.365 70.9611 441.372 76.5908 448.484 75.054L453.86 73.7608L446.709 55.0327L416.077 59.6121L411.51 71.8176Z" fill="#1B82FB"/>
<path d="M410.943 72.0228L434.354 70.8326L437.178 66.4873L439.365 70.9611C439.365 70.9611 441.491 76.8371 448.603 75.3003" stroke="black" stroke-width="1.5" stroke-linecap="round" stroke-linejoin="round"/>
<path d="M430.935 77.3404C430.939 77.2112 430.912 77.0895 430.858 76.9892C430.82 76.8735 430.755 76.7712 430.667 76.6898C430.582 76.5983 430.48 76.533 430.375 76.5C430.263 76.4415 430.141 76.4153 430.006 76.42L429.771 76.4523C429.616 76.4953 429.48 76.5747 429.359 76.6952L429.222 76.8741C429.139 77.0168 429.096 77.1722 429.096 77.3451L429.105 77.4245C429.1 77.553 429.128 77.6748 429.182 77.7758C429.219 77.8922 429.285 77.9944 429.372 78.0752C429.457 78.166 429.559 78.232 429.665 78.2649C429.767 78.3188 429.878 78.3463 430 78.3463C430.012 78.3463 430.023 78.3463 430.034 78.3463L430.269 78.314C430.424 78.271 430.56 78.1916 430.681 78.0711L430.818 77.8915C430.901 77.7488 430.943 77.5934 430.943 77.4286L430.934 77.3424L430.935 77.3404Z" fill="black"/>
<path d="M420.257 77.345C420.219 77.2286 420.154 77.127 420.066 77.0456C419.981 76.9547 419.879 76.8888 419.774 76.8558C419.661 76.7973 419.539 76.7724 419.404 76.7751L419.169 76.8074C419.014 76.8505 418.878 76.9299 418.758 77.0503L418.62 77.2299C418.537 77.3726 418.495 77.528 418.495 77.7003L418.504 77.7797C418.499 77.9082 418.526 78.03 418.581 78.1309C418.618 78.2473 418.684 78.3489 418.772 78.4303C418.857 78.5218 418.959 78.5871 419.064 78.6201C419.167 78.6739 419.277 78.7015 419.4 78.7015C419.411 78.7015 419.422 78.7015 419.433 78.7015L419.669 78.6692C419.824 78.6261 419.96 78.546 420.08 78.4263L420.218 78.2466C420.3 78.104 420.343 77.9485 420.344 77.7837L420.334 77.6969C420.339 77.5684 420.311 77.4466 420.257 77.3457L420.257 77.345Z" fill="black"/>
<path d="M423.807 82.2222L423.271 84.7507C423.172 85.2177 423.578 85.6369 424.046 85.5508L426.27 85.143" stroke="black" stroke-width="1.5" stroke-linecap="round" stroke-linejoin="round"/>
<path d="M429.419 73.9339C429.419 73.9339 432.616 72.8082 434.261 74.9351" stroke="black" stroke-width="1.5" stroke-linecap="round" stroke-linejoin="round"/>
<path d="M433.101 87.5049C433.101 87.5049 432.143 90.9835 427.765 90.4022" stroke="black" stroke-width="1.5" stroke-linecap="round" stroke-linejoin="round"/>
<path d="M416.995 75.2204C416.995 75.2204 419.46 73.2093 421.841 74.446" stroke="black" stroke-width="1.5" stroke-linecap="round" stroke-linejoin="round"/>
<path d="M476.863 194.042C476.996 195.454 477.249 202.452 477.249 202.452L400.908 202.236C400.908 202.236 401.269 198.418 401.517 192.908C397.503 197.189 394.422 202.173 384.277 201.438C376.725 200.894 372.509 195.644 369.389 190.736L341.68 153.495L361.636 139.376L374.696 154.114L383.357 163.885L395.868 121.551C397.066 119.113 398.804 117.112 400.865 115.624C403.895 113.046 409.228 111.292 415.771 111.33L426.411 111.21C426.392 112.603 426.684 121.424 437.152 120.925C446.834 120.456 448.306 113.249 448.527 110.95L465.716 110.754C465.716 110.754 467.403 110.691 468.608 110.843C476.458 111.856 481.714 116.643 484.535 121.671C486.095 124.445 486.881 127.58 486.951 130.759L487.896 176.133L487.972 176.653C488.6 184.619 484.173 191.858 476.863 194.043L476.863 194.042Z" fill="black"/>
<path d="M415.581 126.655C415.581 126.655 411.966 123.882 410.659 121.177C409.352 118.471 407.122 120.468 407.707 122.694C408.293 124.92 409.915 126.342 409.915 126.342" fill="#FFFDFD"/>
<path d="M415.581 126.655C415.581 126.655 411.966 123.882 410.659 121.177C409.352 118.471 407.122 120.468 407.707 122.694C408.293 124.92 409.915 126.342 409.915 126.342" stroke="black" stroke-width="1.5" stroke-linecap="round" stroke-linejoin="round"/>
<path d="M391.637 132.934L416.853 118.082L414.616 114.195L389.4 129.047L391.637 132.934Z" fill="#1B82FB" stroke="black" stroke-width="1.5" stroke-linecap="round" stroke-linejoin="round"/>
<path d="M411.638 116.103L413.789 119.841" stroke="black" stroke-width="1.5" stroke-linecap="round" stroke-linejoin="round"/>
<path d="M391.637 132.934L386.489 133.304L389.4 129.047L391.637 132.934Z" fill="white" stroke="black" stroke-width="1.5" stroke-linecap="round" stroke-linejoin="round"/>
<path d="M388.872 132.788L387.945 131.176L386.642 133.216L388.872 132.788Z" fill="black"/>
<path d="M410.38 124.098C407.146 122.92 404.387 122.412 401.783 122.062C396.589 121.365 393.075 123.856 391.502 124.781C390.818 125.183 391.036 126.817 392.258 126.951C393.865 127.126 395.725 125.422 397.034 125.616C398.519 125.836 399.589 126.062 400.742 126.421C398.268 127.61 397.386 129.413 397.846 130.951C396.716 132.233 396.484 133.728 396.802 134.495C396.851 134.612 396.959 134.707 397.113 134.786C396.531 136.198 396.816 137.546 397.593 137.623C399.116 137.774 399.216 135.091 401.836 135.933C402.501 136.146 406.358 139.481 406.358 139.481C407.643 140.622 417.6 149.627 417.6 149.627L427.233 133.304C420.385 129.201 413.06 125.073 410.382 124.098H410.38Z" fill="#FFFDFD" stroke="black" stroke-width="1.5" stroke-linecap="round" stroke-linejoin="round"/>
<path d="M409.346 126.987C409.346 126.987 405.328 124.869 402.158 125.865C401.637 126.028 401.165 126.214 400.739 126.418" stroke="black" stroke-width="1.5" stroke-linecap="round" stroke-linejoin="round"/>
<path d="M407.783 130.064C407.783 130.064 403.495 127.955 400.108 129.367C399.124 129.778 398.381 130.339 397.843 130.949" stroke="black" stroke-width="1.5" stroke-linecap="round" stroke-linejoin="round"/>
<path d="M397.109 134.784C397.444 133.973 398.067 133.14 399.05 132.516C401.741 130.804 406.429 133.618 406.429 133.618" stroke="black" stroke-width="1.5" stroke-linecap="round" stroke-linejoin="round"/>
<path d="M462.909 154.979L462.706 143.887" stroke="#FDFDFF" stroke-width="1.5" stroke-linecap="round" stroke-linejoin="round"/>
<path d="M403.569 149.627C403.487 152.614 402.293 179.191 401.651 193.364" stroke="#FDFDFF" stroke-width="1.5" stroke-linecap="round" stroke-linejoin="round"/>
<path d="M340.451 129.492C340.451 129.492 339.796 125.403 339.172 123.015C338.549 120.626 342.849 120.721 343.552 123.84C344.255 126.959 344.234 127.498 344.234 127.498" fill="#FFFDFD"/>
<path d="M340.451 129.492C340.451 129.492 339.796 125.403 339.172 123.015C338.549 120.626 342.849 120.721 343.552 123.84C344.255 126.959 344.234 127.498 344.234 127.498" stroke="black" stroke-width="1.5" stroke-linecap="round" stroke-linejoin="round"/>
<path d="M386.095 152.383L377.031 110.583H341.598L339.87 112.315L384.367 154.116L386.095 152.383Z" fill="#1B82FB" stroke="black" stroke-width="1.5" stroke-linecap="round" stroke-linejoin="round"/>
<path d="M384.367 154.116L375.304 112.315H339.87L348.934 154.116H384.367Z" fill="#1B82FB" stroke="black" stroke-width="1.5" stroke-linecap="round" stroke-linejoin="round"/>
<path d="M347.073 113.953C345.622 113.953 344.445 112.777 344.445 111.327C344.445 109.877 345.622 108.702 347.073 108.702C348.162 108.702 349.096 109.363 349.496 110.305" stroke="black" stroke-width="1.5" stroke-linecap="round" stroke-linejoin="round"/>
<path d="M350.51 113.953C349.058 113.953 347.881 112.777 347.881 111.327C347.881 109.877 349.058 108.702 350.51 108.702C351.599 108.702 352.533 109.363 352.932 110.305" stroke="black" stroke-width="1.5" stroke-linecap="round" stroke-linejoin="round"/>
<path d="M353.947 113.953C352.495 113.953 351.318 112.777 351.318 111.327C351.318 109.877 352.495 108.702 353.947 108.702C355.036 108.702 355.97 109.363 356.37 110.305" stroke="black" stroke-width="1.5" stroke-linecap="round" stroke-linejoin="round"/>
<path d="M357.383 113.953C355.932 113.953 354.755 112.777 354.755 111.327C354.755 109.877 355.932 108.702 357.383 108.702C358.472 108.702 359.407 109.363 359.806 110.305" stroke="black" stroke-width="1.5" stroke-linecap="round" stroke-linejoin="round"/>
<path d="M360.821 113.953C359.369 113.953 358.192 112.777 358.192 111.327C358.192 109.877 359.369 108.702 360.821 108.702C361.909 108.702 362.844 109.363 363.243 110.305" stroke="black" stroke-width="1.5" stroke-linecap="round" stroke-linejoin="round"/>
<path d="M364.257 113.953C362.805 113.953 361.628 112.777 361.628 111.327C361.628 109.877 362.805 108.702 364.257 108.702C365.346 108.702 366.28 109.363 366.68 110.305" stroke="black" stroke-width="1.5" stroke-linecap="round" stroke-linejoin="round"/>
<path d="M367.694 113.953C366.242 113.953 365.066 112.777 365.066 111.327C365.066 109.877 366.242 108.702 367.694 108.702C368.783 108.702 369.717 109.363 370.117 110.305" stroke="black" stroke-width="1.5" stroke-linecap="round" stroke-linejoin="round"/>
<path d="M371.131 113.953C369.68 113.953 368.503 112.777 368.503 111.327C368.503 109.877 369.68 108.702 371.131 108.702C372.22 108.702 373.154 109.363 373.554 110.305" stroke="black" stroke-width="1.5" stroke-linecap="round" stroke-linejoin="round"/>
<path d="M375.304 112.315L377.031 110.583" stroke="black" stroke-width="1.5" stroke-linecap="round" stroke-linejoin="round"/>
<path d="M345.876 130.901C347.02 130.499 347.827 130.175 349.301 129.724C351.749 128.975 351.59 126.477 348.389 126.935C347.921 127.001 346.679 127.063 345.667 127.277C346.487 126.965 347.343 126.735 348.254 126.149C349.909 125.085 348.757 123.792 346.821 123.804C345.937 123.808 344.234 123.794 341.844 125.062C340.004 126.038 338.278 127.401 337.828 128.555C336.604 131.704 338.453 138.919 339.182 141.527C340.279 145.441 341.985 149.102 343.849 152.369L347.932 149.507L345.624 138.837C346.557 137.904 348.721 137.059 349.794 136.391C350.6 135.888 350.579 134.981 349.403 134.569C348.832 134.369 347.808 134.03 346.022 134.566C346.172 134.437 346.33 134.45 346.461 134.339C347.787 133.22 350.268 133.658 350.742 132.349C351.074 131.431 349.873 130.024 345.876 130.901H345.876Z" fill="#FFFDFD" stroke="black" stroke-width="1.5" stroke-linecap="round" stroke-linejoin="round"/>
<path d="M339.816 131.392C339.816 131.392 341.354 129.347 343.112 128.228C343.908 127.722 344.932 127.418 345.867 127.235" fill="#FEFFFF"/>
<path d="M339.816 131.392C339.816 131.392 341.354 129.347 343.112 128.228C343.908 127.722 344.932 127.418 345.867 127.235" stroke="black" stroke-width="1.5" stroke-linecap="round" stroke-linejoin="round"/>
<path d="M346.648 134.199C345.304 134.88 342.841 137.045 342.841 137.045" stroke="black" stroke-width="1.5" stroke-linecap="round" stroke-linejoin="round"/>
<path d="M341.367 134.263C341.367 134.263 342.944 132.251 344.829 131.297C345.145 131.136 345.502 131.005 345.875 130.899" stroke="black" stroke-width="1.5" stroke-linecap="round" stroke-linejoin="round"/>
<path d="M345.624 138.836L344.445 139.915" stroke="black" stroke-width="1.5" stroke-linecap="round" stroke-linejoin="round"/>
<path d="M471.366 161.159L426.129 128.101L411.997 149.674C411.997 149.674 464.054 190.457 465.359 191.231C469.605 193.745 474.565 194.624 477.014 194.046" fill="black"/>
<path d="M471.366 161.159L426.129 128.101L411.997 149.674C411.997 149.674 464.054 190.457 465.359 191.231C469.605 193.745 474.565 194.624 477.014 194.046" stroke="#FDFDFF" stroke-width="1.5" stroke-linecap="round" stroke-linejoin="round"/>
</g>
<defs>
<clipPath id="clip0_7503_1869">
<rect width="476" height="465" fill="white" transform="translate(31.3046)"/>
</clipPath>
</defs>
</svg>
